ISO-10303-21;
HEADER;
/* Generated by software containing ST-Developer
 * from STEP Tools, Inc. (www.steptools.com) 
 */

FILE_DESCRIPTION(
/* description */ (''),
/* implementation_level */ '2;1');

FILE_NAME(
/* name */ 'SENTRY_Mount_v10.step',
/* time_stamp */ '2026-08-17T15:17:07+01:00',
/* author */ (''),
/* organization */ (''),
/* preprocessor_version */ 'ST-DEVELOPER v20.1',
/* originating_system */ 'Autodesk Translation Framework v15.8.0.0',
/* authorisation */ '');

FILE_SCHEMA (('AUTOMOTIVE_DESIGN { 1 0 10303 214 3 1 1 }'));
ENDSEC;

DATA;
#10=MECHANICAL_DESIGN_GEOMETRIC_PRESENTATION_REPRESENTATION('',(#13),#1514);
#11=SHAPE_REPRESENTATION_RELATIONSHIP('SRR','None',#1521,#12);
#12=ADVANCED_BREP_SHAPE_REPRESENTATION('',(#14),#1513);
#13=STYLED_ITEM('',(#1531),#14);
#14=MANIFOLD_SOLID_BREP('MountBody',#954);
#15=CIRCLE('',#986,0.15);
#16=CIRCLE('',#987,0.15);
#17=CYLINDRICAL_SURFACE('',#985,0.15);
#18=FACE_BOUND('',#77,.T.);
#19=FACE_BOUND('',#79,.T.);
#20=FACE_BOUND('',#84,.T.);
#21=FACE_BOUND('',#86,.T.);
#22=FACE_BOUND('',#99,.T.);
#23=FACE_BOUND('',#113,.T.);
#24=FACE_BOUND('',#114,.T.);
#25=FACE_BOUND('',#123,.T.);
#26=FACE_BOUND('',#131,.T.);
#27=FACE_OUTER_BOUND('',#75,.T.);
#28=FACE_OUTER_BOUND('',#76,.T.);
#29=FACE_OUTER_BOUND('',#78,.T.);
#30=FACE_OUTER_BOUND('',#80,.T.);
#31=FACE_OUTER_BOUND('',#81,.T.);
#32=FACE_OUTER_BOUND('',#82,.T.);
#33=FACE_OUTER_BOUND('',#83,.T.);
#34=FACE_OUTER_BOUND('',#85,.T.);
#35=FACE_OUTER_BOUND('',#87,.T.);
#36=FACE_OUTER_BOUND('',#88,.T.);
#37=FACE_OUTER_BOUND('',#89,.T.);
#38=FACE_OUTER_BOUND('',#90,.T.);
#39=FACE_OUTER_BOUND('',#91,.T.);
#40=FACE_OUTER_BOUND('',#92,.T.);
#41=FACE_OUTER_BOUND('',#93,.T.);
#42=FACE_OUTER_BOUND('',#94,.T.);
#43=FACE_OUTER_BOUND('',#95,.T.);
#44=FACE_OUTER_BOUND('',#96,.T.);
#45=FACE_OUTER_BOUND('',#97,.T.);
#46=FACE_OUTER_BOUND('',#98,.T.);
#47=FACE_OUTER_BOUND('',#100,.T.);
#48=FACE_OUTER_BOUND('',#101,.T.);
#49=FACE_OUTER_BOUND('',#102,.T.);
#50=FACE_OUTER_BOUND('',#103,.T.);
#51=FACE_OUTER_BOUND('',#104,.T.);
#52=FACE_OUTER_BOUND('',#105,.T.);
#53=FACE_OUTER_BOUND('',#106,.T.);
#54=FACE_OUTER_BOUND('',#107,.T.);
#55=FACE_OUTER_BOUND('',#108,.T.);
#56=FACE_OUTER_BOUND('',#109,.T.);
#57=FACE_OUTER_BOUND('',#110,.T.);
#58=FACE_OUTER_BOUND('',#111,.T.);
#59=FACE_OUTER_BOUND('',#112,.T.);
#60=FACE_OUTER_BOUND('',#115,.T.);
#61=FACE_OUTER_BOUND('',#116,.T.);
#62=FACE_OUTER_BOUND('',#117,.T.);
#63=FACE_OUTER_BOUND('',#118,.T.);
#64=FACE_OUTER_BOUND('',#119,.T.);
#65=FACE_OUTER_BOUND('',#120,.T.);
#66=FACE_OUTER_BOUND('',#121,.T.);
#67=FACE_OUTER_BOUND('',#122,.T.);
#68=FACE_OUTER_BOUND('',#124,.T.);
#69=FACE_OUTER_BOUND('',#125,.T.);
#70=FACE_OUTER_BOUND('',#126,.T.);
#71=FACE_OUTER_BOUND('',#127,.T.);
#72=FACE_OUTER_BOUND('',#128,.T.);
#73=FACE_OUTER_BOUND('',#129,.T.);
#74=FACE_OUTER_BOUND('',#130,.T.);
#75=EDGE_LOOP('',(#601,#602,#603,#604));
#76=EDGE_LOOP('',(#605,#606,#607,#608));
#77=EDGE_LOOP('',(#609,#610,#611));
#78=EDGE_LOOP('',(#612,#613,#614,#615));
#79=EDGE_LOOP('',(#616,#617,#618));
#80=EDGE_LOOP('',(#619,#620,#621,#622));
#81=EDGE_LOOP('',(#623,#624,#625,#626));
#82=EDGE_LOOP('',(#627,#628,#629,#630));
#83=EDGE_LOOP('',(#631,#632,#633,#634));
#84=EDGE_LOOP('',(#635,#636,#637));
#85=EDGE_LOOP('',(#638,#639,#640,#641));
#86=EDGE_LOOP('',(#642,#643,#644));
#87=EDGE_LOOP('',(#645,#646,#647,#648));
#88=EDGE_LOOP('',(#649,#650,#651,#652));
#89=EDGE_LOOP('',(#653,#654,#655,#656));
#90=EDGE_LOOP('',(#657,#658,#659,#660));
#91=EDGE_LOOP('',(#661,#662,#663,#664));
#92=EDGE_LOOP('',(#665,#666,#667,#668));
#93=EDGE_LOOP('',(#669,#670,#671,#672));
#94=EDGE_LOOP('',(#673,#674,#675,#676));
#95=EDGE_LOOP('',(#677,#678,#679,#680));
#96=EDGE_LOOP('',(#681,#682,#683,#684));
#97=EDGE_LOOP('',(#685));
#98=EDGE_LOOP('',(#686,#687,#688,#689,#690,#691,#692,#693,#694,#695,#696,
#697,#698,#699,#700,#701,#702,#703,#704,#705,#706,#707,#708,#709,#710));
#99=EDGE_LOOP('',(#711,#712,#713));
#100=EDGE_LOOP('',(#714,#715,#716,#717));
#101=EDGE_LOOP('',(#718,#719,#720,#721));
#102=EDGE_LOOP('',(#722,#723,#724,#725));
#103=EDGE_LOOP('',(#726,#727,#728,#729));
#104=EDGE_LOOP('',(#730,#731,#732,#733));
#105=EDGE_LOOP('',(#734,#735,#736,#737));
#106=EDGE_LOOP('',(#738,#739,#740,#741));
#107=EDGE_LOOP('',(#742,#743,#744,#745));
#108=EDGE_LOOP('',(#746,#747,#748,#749));
#109=EDGE_LOOP('',(#750,#751,#752,#753));
#110=EDGE_LOOP('',(#754,#755,#756,#757));
#111=EDGE_LOOP('',(#758,#759,#760,#761));
#112=EDGE_LOOP('',(#762,#763,#764,#765));
#113=EDGE_LOOP('',(#766,#767,#768,#769));
#114=EDGE_LOOP('',(#770,#771,#772,#773));
#115=EDGE_LOOP('',(#774,#775,#776,#777));
#116=EDGE_LOOP('',(#778,#779,#780,#781));
#117=EDGE_LOOP('',(#782,#783,#784,#785));
#118=EDGE_LOOP('',(#786,#787,#788,#789));
#119=EDGE_LOOP('',(#790,#791,#792,#793));
#120=EDGE_LOOP('',(#794,#795,#796,#797));
#121=EDGE_LOOP('',(#798,#799,#800,#801));
#122=EDGE_LOOP('',(#802,#803,#804,#805));
#123=EDGE_LOOP('',(#806));
#124=EDGE_LOOP('',(#807,#808,#809,#810));
#125=EDGE_LOOP('',(#811,#812,#813,#814));
#126=EDGE_LOOP('',(#815,#816,#817,#818));
#127=EDGE_LOOP('',(#819,#820,#821,#822));
#128=EDGE_LOOP('',(#823,#824,#825,#826));
#129=EDGE_LOOP('',(#827,#828,#829,#830));
#130=EDGE_LOOP('',(#831,#832,#833,#834,#835,#836,#837,#838,#839,#840,#841,
#842,#843,#844,#845,#846,#847,#848,#849,#850,#851,#852,#853,#854,#855));
#131=EDGE_LOOP('',(#856,#857,#858));
#132=LINE('',#1251,#259);
#133=LINE('',#1253,#260);
#134=LINE('',#1255,#261);
#135=LINE('',#1256,#262);
#136=LINE('',#1259,#263);
#137=LINE('',#1261,#264);
#138=LINE('',#1262,#265);
#139=LINE('',#1265,#266);
#140=LINE('',#1267,#267);
#141=LINE('',#1268,#268);
#142=LINE('',#1271,#269);
#143=LINE('',#1273,#270);
#144=LINE('',#1274,#271);
#145=LINE('',#1277,#272);
#146=LINE('',#1279,#273);
#147=LINE('',#1280,#274);
#148=LINE('',#1282,#275);
#149=LINE('',#1284,#276);
#150=LINE('',#1288,#277);
#151=LINE('',#1290,#278);
#152=LINE('',#1292,#279);
#153=LINE('',#1293,#280);
#154=LINE('',#1296,#281);
#155=LINE('',#1298,#282);
#156=LINE('',#1299,#283);
#157=LINE('',#1302,#284);
#158=LINE('',#1304,#285);
#159=LINE('',#1305,#286);
#160=LINE('',#1308,#287);
#161=LINE('',#1310,#288);
#162=LINE('',#1311,#289);
#163=LINE('',#1314,#290);
#164=LINE('',#1316,#291);
#165=LINE('',#1317,#292);
#166=LINE('',#1319,#293);
#167=LINE('',#1321,#294);
#168=LINE('',#1324,#295);
#169=LINE('',#1326,#296);
#170=LINE('',#1327,#297);
#171=LINE('',#1330,#298);
#172=LINE('',#1332,#299);
#173=LINE('',#1333,#300);
#174=LINE('',#1336,#301);
#175=LINE('',#1337,#302);
#176=LINE('',#1340,#303);
#177=LINE('',#1341,#304);
#178=LINE('',#1343,#305);
#179=LINE('',#1344,#306);
#180=LINE('',#1346,#307);
#181=LINE('',#1348,#308);
#182=LINE('',#1353,#309);
#183=LINE('',#1359,#310);
#184=LINE('',#1361,#311);
#185=LINE('',#1363,#312);
#186=LINE('',#1365,#313);
#187=LINE('',#1367,#314);
#188=LINE('',#1369,#315);
#189=LINE('',#1371,#316);
#190=LINE('',#1373,#317);
#191=LINE('',#1375,#318);
#192=LINE('',#1377,#319);
#193=LINE('',#1379,#320);
#194=LINE('',#1381,#321);
#195=LINE('',#1383,#322);
#196=LINE('',#1385,#323);
#197=LINE('',#1387,#324);
#198=LINE('',#1389,#325);
#199=LINE('',#1391,#326);
#200=LINE('',#1393,#327);
#201=LINE('',#1395,#328);
#202=LINE('',#1397,#329);
#203=LINE('',#1399,#330);
#204=LINE('',#1401,#331);
#205=LINE('',#1403,#332);
#206=LINE('',#1405,#333);
#207=LINE('',#1406,#334);
#208=LINE('',#1408,#335);
#209=LINE('',#1412,#336);
#210=LINE('',#1414,#337);
#211=LINE('',#1415,#338);
#212=LINE('',#1418,#339);
#213=LINE('',#1419,#340);
#214=LINE('',#1422,#341);
#215=LINE('',#1423,#342);
#216=LINE('',#1426,#343);
#217=LINE('',#1427,#344);
#218=LINE('',#1430,#345);
#219=LINE('',#1431,#346);
#220=LINE('',#1434,#347);
#221=LINE('',#1435,#348);
#222=LINE('',#1438,#349);
#223=LINE('',#1439,#350);
#224=LINE('',#1442,#351);
#225=LINE('',#1443,#352);
#226=LINE('',#1446,#353);
#227=LINE('',#1447,#354);
#228=LINE('',#1450,#355);
#229=LINE('',#1451,#356);
#230=LINE('',#1454,#357);
#231=LINE('',#1455,#358);
#232=LINE('',#1458,#359);
#233=LINE('',#1459,#360);
#234=LINE('',#1462,#361);
#235=LINE('',#1463,#362);
#236=LINE('',#1466,#363);
#237=LINE('',#1467,#364);
#238=LINE('',#1470,#365);
#239=LINE('',#1471,#366);
#240=LINE('',#1474,#367);
#241=LINE('',#1475,#368);
#242=LINE('',#1478,#369);
#243=LINE('',#1479,#370);
#244=LINE('',#1482,#371);
#245=LINE('',#1483,#372);
#246=LINE('',#1486,#373);
#247=LINE('',#1487,#374);
#248=LINE('',#1490,#375);
#249=LINE('',#1491,#376);
#250=LINE('',#1494,#377);
#251=LINE('',#1495,#378);
#252=LINE('',#1498,#379);
#253=LINE('',#1499,#380);
#254=LINE('',#1502,#381);
#255=LINE('',#1503,#382);
#256=LINE('',#1506,#383);
#257=LINE('',#1507,#384);
#258=LINE('',#1509,#385);
#259=VECTOR('',#1022,1.);
#260=VECTOR('',#1023,1.);
#261=VECTOR('',#1024,1.);
#262=VECTOR('',#1025,1.);
#263=VECTOR('',#1028,1.);
#264=VECTOR('',#1029,1.);
#265=VECTOR('',#1030,1.);
#266=VECTOR('',#1031,1.);
#267=VECTOR('',#1032,1.);
#268=VECTOR('',#1033,1.);
#269=VECTOR('',#1036,1.);
#270=VECTOR('',#1037,1.);
#271=VECTOR('',#1038,1.);
#272=VECTOR('',#1039,1.);
#273=VECTOR('',#1040,1.);
#274=VECTOR('',#1041,1.);
#275=VECTOR('',#1044,1.);
#276=VECTOR('',#1047,1.);
#277=VECTOR('',#1050,1.);
#278=VECTOR('',#1051,1.);
#279=VECTOR('',#1052,1.);
#280=VECTOR('',#1053,1.);
#281=VECTOR('',#1056,1.);
#282=VECTOR('',#1057,1.);
#283=VECTOR('',#1058,1.);
#284=VECTOR('',#1059,1.);
#285=VECTOR('',#1060,1.);
#286=VECTOR('',#1061,1.);
#287=VECTOR('',#1064,1.);
#288=VECTOR('',#1065,1.);
#289=VECTOR('',#1066,1.);
#290=VECTOR('',#1067,1.);
#291=VECTOR('',#1068,1.);
#292=VECTOR('',#1069,1.);
#293=VECTOR('',#1072,1.);
#294=VECTOR('',#1075,1.);
#295=VECTOR('',#1078,1.);
#296=VECTOR('',#1079,1.);
#297=VECTOR('',#1080,1.);
#298=VECTOR('',#1083,1.);
#299=VECTOR('',#1084,1.);
#300=VECTOR('',#1085,1.);
#301=VECTOR('',#1088,1.);
#302=VECTOR('',#1089,1.);
#303=VECTOR('',#1092,1.);
#304=VECTOR('',#1093,1.);
#305=VECTOR('',#1096,1.);
#306=VECTOR('',#1097,1.);
#307=VECTOR('',#1100,1.);
#308=VECTOR('',#1103,1.);
#309=VECTOR('',#1108,0.15);
#310=VECTOR('',#1115,1.);
#311=VECTOR('',#1116,1.);
#312=VECTOR('',#1117,1.);
#313=VECTOR('',#1118,1.);
#314=VECTOR('',#1119,1.);
#315=VECTOR('',#1120,1.);
#316=VECTOR('',#1121,1.);
#317=VECTOR('',#1122,1.);
#318=VECTOR('',#1123,1.);
#319=VECTOR('',#1124,1.);
#320=VECTOR('',#1125,1.);
#321=VECTOR('',#1126,1.);
#322=VECTOR('',#1127,1.);
#323=VECTOR('',#1128,1.);
#324=VECTOR('',#1129,1.);
#325=VECTOR('',#1130,1.);
#326=VECTOR('',#1131,1.);
#327=VECTOR('',#1132,1.);
#328=VECTOR('',#1133,1.);
#329=VECTOR('',#1134,1.);
#330=VECTOR('',#1135,1.);
#331=VECTOR('',#1136,1.);
#332=VECTOR('',#1137,1.);
#333=VECTOR('',#1138,1.);
#334=VECTOR('',#1139,1.);
#335=VECTOR('',#1142,1.);
#336=VECTOR('',#1147,1.);
#337=VECTOR('',#1148,1.);
#338=VECTOR('',#1149,1.);
#339=VECTOR('',#1152,1.);
#340=VECTOR('',#1153,1.);
#341=VECTOR('',#1156,1.);
#342=VECTOR('',#1157,1.);
#343=VECTOR('',#1160,1.);
#344=VECTOR('',#1161,1.);
#345=VECTOR('',#1164,1.);
#346=VECTOR('',#1165,1.);
#347=VECTOR('',#1168,1.);
#348=VECTOR('',#1169,1.);
#349=VECTOR('',#1172,1.);
#350=VECTOR('',#1173,1.);
#351=VECTOR('',#1176,1.);
#352=VECTOR('',#1177,1.);
#353=VECTOR('',#1180,1.);
#354=VECTOR('',#1181,1.);
#355=VECTOR('',#1184,1.);
#356=VECTOR('',#1185,1.);
#357=VECTOR('',#1188,1.);
#358=VECTOR('',#1189,1.);
#359=VECTOR('',#1192,1.);
#360=VECTOR('',#1193,1.);
#361=VECTOR('',#1196,1.);
#362=VECTOR('',#1197,1.);
#363=VECTOR('',#1200,1.);
#364=VECTOR('',#1201,1.);
#365=VECTOR('',#1204,1.);
#366=VECTOR('',#1205,1.);
#367=VECTOR('',#1208,1.);
#368=VECTOR('',#1209,1.);
#369=VECTOR('',#1212,1.);
#370=VECTOR('',#1213,1.);
#371=VECTOR('',#1216,1.);
#372=VECTOR('',#1217,1.);
#373=VECTOR('',#1220,1.);
#374=VECTOR('',#1221,1.);
#375=VECTOR('',#1224,1.);
#376=VECTOR('',#1225,1.);
#377=VECTOR('',#1228,1.);
#378=VECTOR('',#1229,1.);
#379=VECTOR('',#1232,1.);
#380=VECTOR('',#1233,1.);
#381=VECTOR('',#1236,1.);
#382=VECTOR('',#1237,1.);
#383=VECTOR('',#1240,1.);
#384=VECTOR('',#1241,1.);
#385=VECTOR('',#1244,1.);
#386=VERTEX_POINT('',#1249);
#387=VERTEX_POINT('',#1250);
#388=VERTEX_POINT('',#1252);
#389=VERTEX_POINT('',#1254);
#390=VERTEX_POINT('',#1258);
#391=VERTEX_POINT('',#1260);
#392=VERTEX_POINT('',#1263);
#393=VERTEX_POINT('',#1264);
#394=VERTEX_POINT('',#1266);
#395=VERTEX_POINT('',#1270);
#396=VERTEX_POINT('',#1272);
#397=VERTEX_POINT('',#1275);
#398=VERTEX_POINT('',#1276);
#399=VERTEX_POINT('',#1278);
#400=VERTEX_POINT('',#1286);
#401=VERTEX_POINT('',#1287);
#402=VERTEX_POINT('',#1289);
#403=VERTEX_POINT('',#1291);
#404=VERTEX_POINT('',#1295);
#405=VERTEX_POINT('',#1297);
#406=VERTEX_POINT('',#1300);
#407=VERTEX_POINT('',#1301);
#408=VERTEX_POINT('',#1303);
#409=VERTEX_POINT('',#1307);
#410=VERTEX_POINT('',#1309);
#411=VERTEX_POINT('',#1312);
#412=VERTEX_POINT('',#1313);
#413=VERTEX_POINT('',#1315);
#414=VERTEX_POINT('',#1323);
#415=VERTEX_POINT('',#1325);
#416=VERTEX_POINT('',#1329);
#417=VERTEX_POINT('',#1331);
#418=VERTEX_POINT('',#1335);
#419=VERTEX_POINT('',#1339);
#420=VERTEX_POINT('',#1350);
#421=VERTEX_POINT('',#1352);
#422=VERTEX_POINT('',#1357);
#423=VERTEX_POINT('',#1358);
#424=VERTEX_POINT('',#1360);
#425=VERTEX_POINT('',#1362);
#426=VERTEX_POINT('',#1364);
#427=VERTEX_POINT('',#1366);
#428=VERTEX_POINT('',#1368);
#429=VERTEX_POINT('',#1370);
#430=VERTEX_POINT('',#1372);
#431=VERTEX_POINT('',#1374);
#432=VERTEX_POINT('',#1376);
#433=VERTEX_POINT('',#1378);
#434=VERTEX_POINT('',#1380);
#435=VERTEX_POINT('',#1382);
#436=VERTEX_POINT('',#1384);
#437=VERTEX_POINT('',#1386);
#438=VERTEX_POINT('',#1388);
#439=VERTEX_POINT('',#1390);
#440=VERTEX_POINT('',#1392);
#441=VERTEX_POINT('',#1394);
#442=VERTEX_POINT('',#1396);
#443=VERTEX_POINT('',#1398);
#444=VERTEX_POINT('',#1400);
#445=VERTEX_POINT('',#1402);
#446=VERTEX_POINT('',#1404);
#447=VERTEX_POINT('',#1411);
#448=VERTEX_POINT('',#1413);
#449=VERTEX_POINT('',#1417);
#450=VERTEX_POINT('',#1421);
#451=VERTEX_POINT('',#1425);
#452=VERTEX_POINT('',#1429);
#453=VERTEX_POINT('',#1433);
#454=VERTEX_POINT('',#1437);
#455=VERTEX_POINT('',#1441);
#456=VERTEX_POINT('',#1445);
#457=VERTEX_POINT('',#1449);
#458=VERTEX_POINT('',#1453);
#459=VERTEX_POINT('',#1457);
#460=VERTEX_POINT('',#1461);
#461=VERTEX_POINT('',#1465);
#462=VERTEX_POINT('',#1469);
#463=VERTEX_POINT('',#1473);
#464=VERTEX_POINT('',#1477);
#465=VERTEX_POINT('',#1481);
#466=VERTEX_POINT('',#1485);
#467=VERTEX_POINT('',#1489);
#468=VERTEX_POINT('',#1493);
#469=VERTEX_POINT('',#1497);
#470=VERTEX_POINT('',#1501);
#471=VERTEX_POINT('',#1505);
#472=EDGE_CURVE('',#386,#387,#132,.T.);
#473=EDGE_CURVE('',#386,#388,#133,.T.);
#474=EDGE_CURVE('',#388,#389,#134,.T.);
#475=EDGE_CURVE('',#389,#387,#135,.T.);
#476=EDGE_CURVE('',#390,#386,#136,.T.);
#477=EDGE_CURVE('',#390,#391,#137,.T.);
#478=EDGE_CURVE('',#388,#391,#138,.T.);
#479=EDGE_CURVE('',#392,#393,#139,.T.);
#480=EDGE_CURVE('',#394,#392,#140,.T.);
#481=EDGE_CURVE('',#393,#394,#141,.T.);
#482=EDGE_CURVE('',#387,#395,#142,.T.);
#483=EDGE_CURVE('',#389,#396,#143,.T.);
#484=EDGE_CURVE('',#396,#395,#144,.T.);
#485=EDGE_CURVE('',#397,#398,#145,.T.);
#486=EDGE_CURVE('',#399,#397,#146,.T.);
#487=EDGE_CURVE('',#398,#399,#147,.T.);
#488=EDGE_CURVE('',#391,#396,#148,.T.);
#489=EDGE_CURVE('',#395,#390,#149,.T.);
#490=EDGE_CURVE('',#400,#401,#150,.T.);
#491=EDGE_CURVE('',#400,#402,#151,.T.);
#492=EDGE_CURVE('',#402,#403,#152,.T.);
#493=EDGE_CURVE('',#403,#401,#153,.T.);
#494=EDGE_CURVE('',#404,#400,#154,.T.);
#495=EDGE_CURVE('',#404,#405,#155,.T.);
#496=EDGE_CURVE('',#402,#405,#156,.T.);
#497=EDGE_CURVE('',#406,#407,#157,.T.);
#498=EDGE_CURVE('',#408,#406,#158,.T.);
#499=EDGE_CURVE('',#407,#408,#159,.T.);
#500=EDGE_CURVE('',#401,#409,#160,.T.);
#501=EDGE_CURVE('',#403,#410,#161,.T.);
#502=EDGE_CURVE('',#410,#409,#162,.T.);
#503=EDGE_CURVE('',#411,#412,#163,.T.);
#504=EDGE_CURVE('',#413,#411,#164,.T.);
#505=EDGE_CURVE('',#412,#413,#165,.T.);
#506=EDGE_CURVE('',#405,#410,#166,.T.);
#507=EDGE_CURVE('',#409,#404,#167,.T.);
#508=EDGE_CURVE('',#397,#414,#168,.T.);
#509=EDGE_CURVE('',#415,#414,#169,.T.);
#510=EDGE_CURVE('',#415,#399,#170,.T.);
#511=EDGE_CURVE('',#408,#416,#171,.T.);
#512=EDGE_CURVE('',#417,#416,#172,.T.);
#513=EDGE_CURVE('',#417,#407,#173,.T.);
#514=EDGE_CURVE('',#406,#418,#174,.T.);
#515=EDGE_CURVE('',#416,#418,#175,.T.);
#516=EDGE_CURVE('',#419,#415,#176,.T.);
#517=EDGE_CURVE('',#419,#398,#177,.T.);
#518=EDGE_CURVE('',#392,#412,#178,.T.);
#519=EDGE_CURVE('',#394,#413,#179,.T.);
#520=EDGE_CURVE('',#418,#417,#180,.T.);
#521=EDGE_CURVE('',#414,#419,#181,.T.);
#522=EDGE_CURVE('',#420,#420,#15,.T.);
#523=EDGE_CURVE('',#420,#421,#182,.T.);
#524=EDGE_CURVE('',#421,#421,#16,.T.);
#525=EDGE_CURVE('',#422,#423,#183,.T.);
#526=EDGE_CURVE('',#423,#424,#184,.T.);
#527=EDGE_CURVE('',#424,#425,#185,.T.);
#528=EDGE_CURVE('',#425,#426,#186,.T.);
#529=EDGE_CURVE('',#426,#427,#187,.T.);
#530=EDGE_CURVE('',#427,#428,#188,.T.);
#531=EDGE_CURVE('',#428,#429,#189,.T.);
#532=EDGE_CURVE('',#429,#430,#190,.T.);
#533=EDGE_CURVE('',#430,#431,#191,.T.);
#534=EDGE_CURVE('',#431,#432,#192,.T.);
#535=EDGE_CURVE('',#432,#433,#193,.T.);
#536=EDGE_CURVE('',#433,#434,#194,.T.);
#537=EDGE_CURVE('',#434,#435,#195,.T.);
#538=EDGE_CURVE('',#435,#436,#196,.T.);
#539=EDGE_CURVE('',#436,#437,#197,.T.);
#540=EDGE_CURVE('',#437,#438,#198,.T.);
#541=EDGE_CURVE('',#438,#439,#199,.T.);
#542=EDGE_CURVE('',#439,#440,#200,.T.);
#543=EDGE_CURVE('',#440,#441,#201,.T.);
#544=EDGE_CURVE('',#441,#442,#202,.T.);
#545=EDGE_CURVE('',#442,#443,#203,.T.);
#546=EDGE_CURVE('',#443,#444,#204,.T.);
#547=EDGE_CURVE('',#444,#445,#205,.T.);
#548=EDGE_CURVE('',#445,#446,#206,.T.);
#549=EDGE_CURVE('',#446,#422,#207,.T.);
#550=EDGE_CURVE('',#411,#393,#208,.T.);
#551=EDGE_CURVE('',#447,#423,#209,.T.);
#552=EDGE_CURVE('',#448,#447,#210,.T.);
#553=EDGE_CURVE('',#424,#448,#211,.T.);
#554=EDGE_CURVE('',#449,#448,#212,.T.);
#555=EDGE_CURVE('',#425,#449,#213,.T.);
#556=EDGE_CURVE('',#450,#449,#214,.T.);
#557=EDGE_CURVE('',#426,#450,#215,.T.);
#558=EDGE_CURVE('',#451,#450,#216,.T.);
#559=EDGE_CURVE('',#427,#451,#217,.T.);
#560=EDGE_CURVE('',#452,#451,#218,.T.);
#561=EDGE_CURVE('',#428,#452,#219,.T.);
#562=EDGE_CURVE('',#453,#452,#220,.T.);
#563=EDGE_CURVE('',#429,#453,#221,.T.);
#564=EDGE_CURVE('',#454,#453,#222,.T.);
#565=EDGE_CURVE('',#430,#454,#223,.T.);
#566=EDGE_CURVE('',#455,#454,#224,.T.);
#567=EDGE_CURVE('',#431,#455,#225,.T.);
#568=EDGE_CURVE('',#456,#455,#226,.T.);
#569=EDGE_CURVE('',#432,#456,#227,.T.);
#570=EDGE_CURVE('',#457,#456,#228,.T.);
#571=EDGE_CURVE('',#433,#457,#229,.T.);
#572=EDGE_CURVE('',#458,#457,#230,.T.);
#573=EDGE_CURVE('',#434,#458,#231,.T.);
#574=EDGE_CURVE('',#459,#458,#232,.T.);
#575=EDGE_CURVE('',#435,#459,#233,.T.);
#576=EDGE_CURVE('',#460,#459,#234,.T.);
#577=EDGE_CURVE('',#436,#460,#235,.T.);
#578=EDGE_CURVE('',#461,#460,#236,.T.);
#579=EDGE_CURVE('',#437,#461,#237,.T.);
#580=EDGE_CURVE('',#462,#461,#238,.T.);
#581=EDGE_CURVE('',#438,#462,#239,.T.);
#582=EDGE_CURVE('',#463,#462,#240,.T.);
#583=EDGE_CURVE('',#439,#463,#241,.T.);
#584=EDGE_CURVE('',#464,#463,#242,.T.);
#585=EDGE_CURVE('',#440,#464,#243,.T.);
#586=EDGE_CURVE('',#465,#464,#244,.T.);
#587=EDGE_CURVE('',#441,#465,#245,.T.);
#588=EDGE_CURVE('',#466,#465,#246,.T.);
#589=EDGE_CURVE('',#442,#466,#247,.T.);
#590=EDGE_CURVE('',#467,#466,#248,.T.);
#591=EDGE_CURVE('',#443,#467,#249,.T.);
#592=EDGE_CURVE('',#468,#467,#250,.T.);
#593=EDGE_CURVE('',#444,#468,#251,.T.);
#594=EDGE_CURVE('',#469,#468,#252,.T.);
#595=EDGE_CURVE('',#445,#469,#253,.T.);
#596=EDGE_CURVE('',#470,#469,#254,.T.);
#597=EDGE_CURVE('',#446,#470,#255,.T.);
#598=EDGE_CURVE('',#471,#470,#256,.T.);
#599=EDGE_CURVE('',#422,#471,#257,.T.);
#600=EDGE_CURVE('',#447,#471,#258,.T.);
#601=ORIENTED_EDGE('',*,*,#472,.F.);
#602=ORIENTED_EDGE('',*,*,#473,.T.);
#603=ORIENTED_EDGE('',*,*,#474,.T.);
#604=ORIENTED_EDGE('',*,*,#475,.T.);
#605=ORIENTED_EDGE('',*,*,#476,.F.);
#606=ORIENTED_EDGE('',*,*,#477,.T.);
#607=ORIENTED_EDGE('',*,*,#478,.F.);
#608=ORIENTED_EDGE('',*,*,#473,.F.);
#609=ORIENTED_EDGE('',*,*,#479,.F.);
#610=ORIENTED_EDGE('',*,*,#480,.F.);
#611=ORIENTED_EDGE('',*,*,#481,.F.);
#612=ORIENTED_EDGE('',*,*,#482,.F.);
#613=ORIENTED_EDGE('',*,*,#475,.F.);
#614=ORIENTED_EDGE('',*,*,#483,.T.);
#615=ORIENTED_EDGE('',*,*,#484,.T.);
#616=ORIENTED_EDGE('',*,*,#485,.F.);
#617=ORIENTED_EDGE('',*,*,#486,.F.);
#618=ORIENTED_EDGE('',*,*,#487,.F.);
#619=ORIENTED_EDGE('',*,*,#474,.F.);
#620=ORIENTED_EDGE('',*,*,#478,.T.);
#621=ORIENTED_EDGE('',*,*,#488,.T.);
#622=ORIENTED_EDGE('',*,*,#483,.F.);
#623=ORIENTED_EDGE('',*,*,#489,.F.);
#624=ORIENTED_EDGE('',*,*,#484,.F.);
#625=ORIENTED_EDGE('',*,*,#488,.F.);
#626=ORIENTED_EDGE('',*,*,#477,.F.);
#627=ORIENTED_EDGE('',*,*,#490,.F.);
#628=ORIENTED_EDGE('',*,*,#491,.T.);
#629=ORIENTED_EDGE('',*,*,#492,.T.);
#630=ORIENTED_EDGE('',*,*,#493,.T.);
#631=ORIENTED_EDGE('',*,*,#494,.F.);
#632=ORIENTED_EDGE('',*,*,#495,.T.);
#633=ORIENTED_EDGE('',*,*,#496,.F.);
#634=ORIENTED_EDGE('',*,*,#491,.F.);
#635=ORIENTED_EDGE('',*,*,#497,.F.);
#636=ORIENTED_EDGE('',*,*,#498,.F.);
#637=ORIENTED_EDGE('',*,*,#499,.F.);
#638=ORIENTED_EDGE('',*,*,#500,.F.);
#639=ORIENTED_EDGE('',*,*,#493,.F.);
#640=ORIENTED_EDGE('',*,*,#501,.T.);
#641=ORIENTED_EDGE('',*,*,#502,.T.);
#642=ORIENTED_EDGE('',*,*,#503,.F.);
#643=ORIENTED_EDGE('',*,*,#504,.F.);
#644=ORIENTED_EDGE('',*,*,#505,.F.);
#645=ORIENTED_EDGE('',*,*,#492,.F.);
#646=ORIENTED_EDGE('',*,*,#496,.T.);
#647=ORIENTED_EDGE('',*,*,#506,.T.);
#648=ORIENTED_EDGE('',*,*,#501,.F.);
#649=ORIENTED_EDGE('',*,*,#507,.F.);
#650=ORIENTED_EDGE('',*,*,#502,.F.);
#651=ORIENTED_EDGE('',*,*,#506,.F.);
#652=ORIENTED_EDGE('',*,*,#495,.F.);
#653=ORIENTED_EDGE('',*,*,#486,.T.);
#654=ORIENTED_EDGE('',*,*,#508,.T.);
#655=ORIENTED_EDGE('',*,*,#509,.F.);
#656=ORIENTED_EDGE('',*,*,#510,.T.);
#657=ORIENTED_EDGE('',*,*,#499,.T.);
#658=ORIENTED_EDGE('',*,*,#511,.T.);
#659=ORIENTED_EDGE('',*,*,#512,.F.);
#660=ORIENTED_EDGE('',*,*,#513,.T.);
#661=ORIENTED_EDGE('',*,*,#498,.T.);
#662=ORIENTED_EDGE('',*,*,#514,.T.);
#663=ORIENTED_EDGE('',*,*,#515,.F.);
#664=ORIENTED_EDGE('',*,*,#511,.F.);
#665=ORIENTED_EDGE('',*,*,#487,.T.);
#666=ORIENTED_EDGE('',*,*,#510,.F.);
#667=ORIENTED_EDGE('',*,*,#516,.F.);
#668=ORIENTED_EDGE('',*,*,#517,.T.);
#669=ORIENTED_EDGE('',*,*,#480,.T.);
#670=ORIENTED_EDGE('',*,*,#518,.T.);
#671=ORIENTED_EDGE('',*,*,#505,.T.);
#672=ORIENTED_EDGE('',*,*,#519,.F.);
#673=ORIENTED_EDGE('',*,*,#497,.T.);
#674=ORIENTED_EDGE('',*,*,#513,.F.);
#675=ORIENTED_EDGE('',*,*,#520,.F.);
#676=ORIENTED_EDGE('',*,*,#514,.F.);
#677=ORIENTED_EDGE('',*,*,#485,.T.);
#678=ORIENTED_EDGE('',*,*,#517,.F.);
#679=ORIENTED_EDGE('',*,*,#521,.F.);
#680=ORIENTED_EDGE('',*,*,#508,.F.);
#681=ORIENTED_EDGE('',*,*,#522,.F.);
#682=ORIENTED_EDGE('',*,*,#523,.T.);
#683=ORIENTED_EDGE('',*,*,#524,.F.);
#684=ORIENTED_EDGE('',*,*,#523,.F.);
#685=ORIENTED_EDGE('',*,*,#522,.T.);
#686=ORIENTED_EDGE('',*,*,#525,.T.);
#687=ORIENTED_EDGE('',*,*,#526,.T.);
#688=ORIENTED_EDGE('',*,*,#527,.T.);
#689=ORIENTED_EDGE('',*,*,#528,.T.);
#690=ORIENTED_EDGE('',*,*,#529,.T.);
#691=ORIENTED_EDGE('',*,*,#530,.T.);
#692=ORIENTED_EDGE('',*,*,#531,.T.);
#693=ORIENTED_EDGE('',*,*,#532,.T.);
#694=ORIENTED_EDGE('',*,*,#533,.T.);
#695=ORIENTED_EDGE('',*,*,#534,.T.);
#696=ORIENTED_EDGE('',*,*,#535,.T.);
#697=ORIENTED_EDGE('',*,*,#536,.T.);
#698=ORIENTED_EDGE('',*,*,#537,.T.);
#699=ORIENTED_EDGE('',*,*,#538,.T.);
#700=ORIENTED_EDGE('',*,*,#539,.T.);
#701=ORIENTED_EDGE('',*,*,#540,.T.);
#702=ORIENTED_EDGE('',*,*,#541,.T.);
#703=ORIENTED_EDGE('',*,*,#542,.T.);
#704=ORIENTED_EDGE('',*,*,#543,.T.);
#705=ORIENTED_EDGE('',*,*,#544,.T.);
#706=ORIENTED_EDGE('',*,*,#545,.T.);
#707=ORIENTED_EDGE('',*,*,#546,.T.);
#708=ORIENTED_EDGE('',*,*,#547,.T.);
#709=ORIENTED_EDGE('',*,*,#548,.T.);
#710=ORIENTED_EDGE('',*,*,#549,.T.);
#711=ORIENTED_EDGE('',*,*,#509,.T.);
#712=ORIENTED_EDGE('',*,*,#521,.T.);
#713=ORIENTED_EDGE('',*,*,#516,.T.);
#714=ORIENTED_EDGE('',*,*,#479,.T.);
#715=ORIENTED_EDGE('',*,*,#550,.F.);
#716=ORIENTED_EDGE('',*,*,#503,.T.);
#717=ORIENTED_EDGE('',*,*,#518,.F.);
#718=ORIENTED_EDGE('',*,*,#481,.T.);
#719=ORIENTED_EDGE('',*,*,#519,.T.);
#720=ORIENTED_EDGE('',*,*,#504,.T.);
#721=ORIENTED_EDGE('',*,*,#550,.T.);
#722=ORIENTED_EDGE('',*,*,#551,.F.);
#723=ORIENTED_EDGE('',*,*,#552,.F.);
#724=ORIENTED_EDGE('',*,*,#553,.F.);
#725=ORIENTED_EDGE('',*,*,#526,.F.);
#726=ORIENTED_EDGE('',*,*,#553,.T.);
#727=ORIENTED_EDGE('',*,*,#554,.F.);
#728=ORIENTED_EDGE('',*,*,#555,.F.);
#729=ORIENTED_EDGE('',*,*,#527,.F.);
#730=ORIENTED_EDGE('',*,*,#555,.T.);
#731=ORIENTED_EDGE('',*,*,#556,.F.);
#732=ORIENTED_EDGE('',*,*,#557,.F.);
#733=ORIENTED_EDGE('',*,*,#528,.F.);
#734=ORIENTED_EDGE('',*,*,#557,.T.);
#735=ORIENTED_EDGE('',*,*,#558,.F.);
#736=ORIENTED_EDGE('',*,*,#559,.F.);
#737=ORIENTED_EDGE('',*,*,#529,.F.);
#738=ORIENTED_EDGE('',*,*,#559,.T.);
#739=ORIENTED_EDGE('',*,*,#560,.F.);
#740=ORIENTED_EDGE('',*,*,#561,.F.);
#741=ORIENTED_EDGE('',*,*,#530,.F.);
#742=ORIENTED_EDGE('',*,*,#561,.T.);
#743=ORIENTED_EDGE('',*,*,#562,.F.);
#744=ORIENTED_EDGE('',*,*,#563,.F.);
#745=ORIENTED_EDGE('',*,*,#531,.F.);
#746=ORIENTED_EDGE('',*,*,#563,.T.);
#747=ORIENTED_EDGE('',*,*,#564,.F.);
#748=ORIENTED_EDGE('',*,*,#565,.F.);
#749=ORIENTED_EDGE('',*,*,#532,.F.);
#750=ORIENTED_EDGE('',*,*,#565,.T.);
#751=ORIENTED_EDGE('',*,*,#566,.F.);
#752=ORIENTED_EDGE('',*,*,#567,.F.);
#753=ORIENTED_EDGE('',*,*,#533,.F.);
#754=ORIENTED_EDGE('',*,*,#567,.T.);
#755=ORIENTED_EDGE('',*,*,#568,.F.);
#756=ORIENTED_EDGE('',*,*,#569,.F.);
#757=ORIENTED_EDGE('',*,*,#534,.F.);
#758=ORIENTED_EDGE('',*,*,#569,.T.);
#759=ORIENTED_EDGE('',*,*,#570,.F.);
#760=ORIENTED_EDGE('',*,*,#571,.F.);
#761=ORIENTED_EDGE('',*,*,#535,.F.);
#762=ORIENTED_EDGE('',*,*,#571,.T.);
#763=ORIENTED_EDGE('',*,*,#572,.F.);
#764=ORIENTED_EDGE('',*,*,#573,.F.);
#765=ORIENTED_EDGE('',*,*,#536,.F.);
#766=ORIENTED_EDGE('',*,*,#482,.T.);
#767=ORIENTED_EDGE('',*,*,#489,.T.);
#768=ORIENTED_EDGE('',*,*,#476,.T.);
#769=ORIENTED_EDGE('',*,*,#472,.T.);
#770=ORIENTED_EDGE('',*,*,#500,.T.);
#771=ORIENTED_EDGE('',*,*,#507,.T.);
#772=ORIENTED_EDGE('',*,*,#494,.T.);
#773=ORIENTED_EDGE('',*,*,#490,.T.);
#774=ORIENTED_EDGE('',*,*,#573,.T.);
#775=ORIENTED_EDGE('',*,*,#574,.F.);
#776=ORIENTED_EDGE('',*,*,#575,.F.);
#777=ORIENTED_EDGE('',*,*,#537,.F.);
#778=ORIENTED_EDGE('',*,*,#575,.T.);
#779=ORIENTED_EDGE('',*,*,#576,.F.);
#780=ORIENTED_EDGE('',*,*,#577,.F.);
#781=ORIENTED_EDGE('',*,*,#538,.F.);
#782=ORIENTED_EDGE('',*,*,#577,.T.);
#783=ORIENTED_EDGE('',*,*,#578,.F.);
#784=ORIENTED_EDGE('',*,*,#579,.F.);
#785=ORIENTED_EDGE('',*,*,#539,.F.);
#786=ORIENTED_EDGE('',*,*,#579,.T.);
#787=ORIENTED_EDGE('',*,*,#580,.F.);
#788=ORIENTED_EDGE('',*,*,#581,.F.);
#789=ORIENTED_EDGE('',*,*,#540,.F.);
#790=ORIENTED_EDGE('',*,*,#581,.T.);
#791=ORIENTED_EDGE('',*,*,#582,.F.);
#792=ORIENTED_EDGE('',*,*,#583,.F.);
#793=ORIENTED_EDGE('',*,*,#541,.F.);
#794=ORIENTED_EDGE('',*,*,#583,.T.);
#795=ORIENTED_EDGE('',*,*,#584,.F.);
#796=ORIENTED_EDGE('',*,*,#585,.F.);
#797=ORIENTED_EDGE('',*,*,#542,.F.);
#798=ORIENTED_EDGE('',*,*,#585,.T.);
#799=ORIENTED_EDGE('',*,*,#586,.F.);
#800=ORIENTED_EDGE('',*,*,#587,.F.);
#801=ORIENTED_EDGE('',*,*,#543,.F.);
#802=ORIENTED_EDGE('',*,*,#587,.T.);
#803=ORIENTED_EDGE('',*,*,#588,.F.);
#804=ORIENTED_EDGE('',*,*,#589,.F.);
#805=ORIENTED_EDGE('',*,*,#544,.F.);
#806=ORIENTED_EDGE('',*,*,#524,.T.);
#807=ORIENTED_EDGE('',*,*,#589,.T.);
#808=ORIENTED_EDGE('',*,*,#590,.F.);
#809=ORIENTED_EDGE('',*,*,#591,.F.);
#810=ORIENTED_EDGE('',*,*,#545,.F.);
#811=ORIENTED_EDGE('',*,*,#591,.T.);
#812=ORIENTED_EDGE('',*,*,#592,.F.);
#813=ORIENTED_EDGE('',*,*,#593,.F.);
#814=ORIENTED_EDGE('',*,*,#546,.F.);
#815=ORIENTED_EDGE('',*,*,#593,.T.);
#816=ORIENTED_EDGE('',*,*,#594,.F.);
#817=ORIENTED_EDGE('',*,*,#595,.F.);
#818=ORIENTED_EDGE('',*,*,#547,.F.);
#819=ORIENTED_EDGE('',*,*,#595,.T.);
#820=ORIENTED_EDGE('',*,*,#596,.F.);
#821=ORIENTED_EDGE('',*,*,#597,.F.);
#822=ORIENTED_EDGE('',*,*,#548,.F.);
#823=ORIENTED_EDGE('',*,*,#597,.T.);
#824=ORIENTED_EDGE('',*,*,#598,.F.);
#825=ORIENTED_EDGE('',*,*,#599,.F.);
#826=ORIENTED_EDGE('',*,*,#549,.F.);
#827=ORIENTED_EDGE('',*,*,#599,.T.);
#828=ORIENTED_EDGE('',*,*,#600,.F.);
#829=ORIENTED_EDGE('',*,*,#551,.T.);
#830=ORIENTED_EDGE('',*,*,#525,.F.);
#831=ORIENTED_EDGE('',*,*,#600,.T.);
#832=ORIENTED_EDGE('',*,*,#598,.T.);
#833=ORIENTED_EDGE('',*,*,#596,.T.);
#834=ORIENTED_EDGE('',*,*,#594,.T.);
#835=ORIENTED_EDGE('',*,*,#592,.T.);
#836=ORIENTED_EDGE('',*,*,#590,.T.);
#837=ORIENTED_EDGE('',*,*,#588,.T.);
#838=ORIENTED_EDGE('',*,*,#586,.T.);
#839=ORIENTED_EDGE('',*,*,#584,.T.);
#840=ORIENTED_EDGE('',*,*,#582,.T.);
#841=ORIENTED_EDGE('',*,*,#580,.T.);
#842=ORIENTED_EDGE('',*,*,#578,.T.);
#843=ORIENTED_EDGE('',*,*,#576,.T.);
#844=ORIENTED_EDGE('',*,*,#574,.T.);
#845=ORIENTED_EDGE('',*,*,#572,.T.);
#846=ORIENTED_EDGE('',*,*,#570,.T.);
#847=ORIENTED_EDGE('',*,*,#568,.T.);
#848=ORIENTED_EDGE('',*,*,#566,.T.);
#849=ORIENTED_EDGE('',*,*,#564,.T.);
#850=ORIENTED_EDGE('',*,*,#562,.T.);
#851=ORIENTED_EDGE('',*,*,#560,.T.);
#852=ORIENTED_EDGE('',*,*,#558,.T.);
#853=ORIENTED_EDGE('',*,*,#556,.T.);
#854=ORIENTED_EDGE('',*,*,#554,.T.);
#855=ORIENTED_EDGE('',*,*,#552,.T.);
#856=ORIENTED_EDGE('',*,*,#512,.T.);
#857=ORIENTED_EDGE('',*,*,#515,.T.);
#858=ORIENTED_EDGE('',*,*,#520,.T.);
#859=PLANE('',#968);
#860=PLANE('',#969);
#861=PLANE('',#970);
#862=PLANE('',#971);
#863=PLANE('',#972);
#864=PLANE('',#973);
#865=PLANE('',#974);
#866=PLANE('',#975);
#867=PLANE('',#976);
#868=PLANE('',#977);
#869=PLANE('',#978);
#870=PLANE('',#979);
#871=PLANE('',#980);
#872=PLANE('',#981);
#873=PLANE('',#982);
#874=PLANE('',#983);
#875=PLANE('',#984);
#876=PLANE('',#988);
#877=PLANE('',#989);
#878=PLANE('',#990);
#879=PLANE('',#991);
#880=PLANE('',#992);
#881=PLANE('',#993);
#882=PLANE('',#994);
#883=PLANE('',#995);
#884=PLANE('',#996);
#885=PLANE('',#997);
#886=PLANE('',#998);
#887=PLANE('',#999);
#888=PLANE('',#1000);
#889=PLANE('',#1001);
#890=PLANE('',#1002);
#891=PLANE('',#1003);
#892=PLANE('',#1004);
#893=PLANE('',#1005);
#894=PLANE('',#1006);
#895=PLANE('',#1007);
#896=PLANE('',#1008);
#897=PLANE('',#1009);
#898=PLANE('',#1010);
#899=PLANE('',#1011);
#900=PLANE('',#1012);
#901=PLANE('',#1013);
#902=PLANE('',#1014);
#903=PLANE('',#1015);
#904=PLANE('',#1016);
#905=PLANE('',#1017);
#906=ADVANCED_FACE('',(#27),#859,.T.);
#907=ADVANCED_FACE('',(#28,#18),#860,.F.);
#908=ADVANCED_FACE('',(#29,#19),#861,.F.);
#909=ADVANCED_FACE('',(#30),#862,.F.);
#910=ADVANCED_FACE('',(#31),#863,.F.);
#911=ADVANCED_FACE('',(#32),#864,.T.);
#912=ADVANCED_FACE('',(#33,#20),#865,.F.);
#913=ADVANCED_FACE('',(#34,#21),#866,.F.);
#914=ADVANCED_FACE('',(#35),#867,.F.);
#915=ADVANCED_FACE('',(#36),#868,.F.);
#916=ADVANCED_FACE('',(#37),#869,.T.);
#917=ADVANCED_FACE('',(#38),#870,.T.);
#918=ADVANCED_FACE('',(#39),#871,.T.);
#919=ADVANCED_FACE('',(#40),#872,.T.);
#920=ADVANCED_FACE('',(#41),#873,.T.);
#921=ADVANCED_FACE('',(#42),#874,.T.);
#922=ADVANCED_FACE('',(#43),#875,.T.);
#923=ADVANCED_FACE('',(#44),#17,.T.);
#924=ADVANCED_FACE('',(#45),#876,.T.);
#925=ADVANCED_FACE('',(#46,#22),#877,.T.);
#926=ADVANCED_FACE('',(#47),#878,.T.);
#927=ADVANCED_FACE('',(#48),#879,.T.);
#928=ADVANCED_FACE('',(#49),#880,.T.);
#929=ADVANCED_FACE('',(#50),#881,.T.);
#930=ADVANCED_FACE('',(#51),#882,.T.);
#931=ADVANCED_FACE('',(#52),#883,.T.);
#932=ADVANCED_FACE('',(#53),#884,.T.);
#933=ADVANCED_FACE('',(#54),#885,.T.);
#934=ADVANCED_FACE('',(#55),#886,.T.);
#935=ADVANCED_FACE('',(#56),#887,.T.);
#936=ADVANCED_FACE('',(#57),#888,.T.);
#937=ADVANCED_FACE('',(#58),#889,.T.);
#938=ADVANCED_FACE('',(#59,#23,#24),#890,.T.);
#939=ADVANCED_FACE('',(#60),#891,.T.);
#940=ADVANCED_FACE('',(#61),#892,.T.);
#941=ADVANCED_FACE('',(#62),#893,.T.);
#942=ADVANCED_FACE('',(#63),#894,.T.);
#943=ADVANCED_FACE('',(#64),#895,.T.);
#944=ADVANCED_FACE('',(#65),#896,.T.);
#945=ADVANCED_FACE('',(#66),#897,.T.);
#946=ADVANCED_FACE('',(#67,#25),#898,.T.);
#947=ADVANCED_FACE('',(#68),#899,.T.);
#948=ADVANCED_FACE('',(#69),#900,.T.);
#949=ADVANCED_FACE('',(#70),#901,.T.);
#950=ADVANCED_FACE('',(#71),#902,.T.);
#951=ADVANCED_FACE('',(#72),#903,.T.);
#952=ADVANCED_FACE('',(#73),#904,.T.);
#953=ADVANCED_FACE('',(#74,#26),#905,.T.);
#954=CLOSED_SHELL('',(#906,#907,#908,#909,#910,#911,#912,#913,#914,#915,
#916,#917,#918,#919,#920,#921,#922,#923,#924,#925,#926,#927,#928,#929,#930,
#931,#932,#933,#934,#935,#936,#937,#938,#939,#940,#941,#942,#943,#944,#945,
#946,#947,#948,#949,#950,#951,#952,#953));
#955=DERIVED_UNIT_ELEMENT(#957,1.);
#956=DERIVED_UNIT_ELEMENT(#1516,-3.);
#957=(
MASS_UNIT()
NAMED_UNIT(*)
SI_UNIT(.KILO.,.GRAM.)
);
#958=DERIVED_UNIT((#955,#956));
#959=MEASURE_REPRESENTATION_ITEM('density measure',
POSITIVE_RATIO_MEASURE(7850.),#958);
#960=PROPERTY_DEFINITION_REPRESENTATION(#965,#962);
#961=PROPERTY_DEFINITION_REPRESENTATION(#966,#963);
#962=REPRESENTATION('material name',(#964),#1513);
#963=REPRESENTATION('density',(#959),#1513);
#964=DESCRIPTIVE_REPRESENTATION_ITEM('Steel','Steel');
#965=PROPERTY_DEFINITION('material property','material name',#1523);
#966=PROPERTY_DEFINITION('material property','density of part',#1523);
#967=AXIS2_PLACEMENT_3D('',#1247,#1018,#1019);
#968=AXIS2_PLACEMENT_3D('',#1248,#1020,#1021);
#969=AXIS2_PLACEMENT_3D('',#1257,#1026,#1027);
#970=AXIS2_PLACEMENT_3D('',#1269,#1034,#1035);
#971=AXIS2_PLACEMENT_3D('',#1281,#1042,#1043);
#972=AXIS2_PLACEMENT_3D('',#1283,#1045,#1046);
#973=AXIS2_PLACEMENT_3D('',#1285,#1048,#1049);
#974=AXIS2_PLACEMENT_3D('',#1294,#1054,#1055);
#975=AXIS2_PLACEMENT_3D('',#1306,#1062,#1063);
#976=AXIS2_PLACEMENT_3D('',#1318,#1070,#1071);
#977=AXIS2_PLACEMENT_3D('',#1320,#1073,#1074);
#978=AXIS2_PLACEMENT_3D('',#1322,#1076,#1077);
#979=AXIS2_PLACEMENT_3D('',#1328,#1081,#1082);
#980=AXIS2_PLACEMENT_3D('',#1334,#1086,#1087);
#981=AXIS2_PLACEMENT_3D('',#1338,#1090,#1091);
#982=AXIS2_PLACEMENT_3D('',#1342,#1094,#1095);
#983=AXIS2_PLACEMENT_3D('',#1345,#1098,#1099);
#984=AXIS2_PLACEMENT_3D('',#1347,#1101,#1102);
#985=AXIS2_PLACEMENT_3D('',#1349,#1104,#1105);
#986=AXIS2_PLACEMENT_3D('',#1351,#1106,#1107);
#987=AXIS2_PLACEMENT_3D('',#1354,#1109,#1110);
#988=AXIS2_PLACEMENT_3D('',#1355,#1111,#1112);
#989=AXIS2_PLACEMENT_3D('',#1356,#1113,#1114);
#990=AXIS2_PLACEMENT_3D('',#1407,#1140,#1141);
#991=AXIS2_PLACEMENT_3D('',#1409,#1143,#1144);
#992=AXIS2_PLACEMENT_3D('',#1410,#1145,#1146);
#993=AXIS2_PLACEMENT_3D('',#1416,#1150,#1151);
#994=AXIS2_PLACEMENT_3D('',#1420,#1154,#1155);
#995=AXIS2_PLACEMENT_3D('',#1424,#1158,#1159);
#996=AXIS2_PLACEMENT_3D('',#1428,#1162,#1163);
#997=AXIS2_PLACEMENT_3D('',#1432,#1166,#1167);
#998=AXIS2_PLACEMENT_3D('',#1436,#1170,#1171);
#999=AXIS2_PLACEMENT_3D('',#1440,#1174,#1175);
#1000=AXIS2_PLACEMENT_3D('',#1444,#1178,#1179);
#1001=AXIS2_PLACEMENT_3D('',#1448,#1182,#1183);
#1002=AXIS2_PLACEMENT_3D('',#1452,#1186,#1187);
#1003=AXIS2_PLACEMENT_3D('',#1456,#1190,#1191);
#1004=AXIS2_PLACEMENT_3D('',#1460,#1194,#1195);
#1005=AXIS2_PLACEMENT_3D('',#1464,#1198,#1199);
#1006=AXIS2_PLACEMENT_3D('',#1468,#1202,#1203);
#1007=AXIS2_PLACEMENT_3D('',#1472,#1206,#1207);
#1008=AXIS2_PLACEMENT_3D('',#1476,#1210,#1211);
#1009=AXIS2_PLACEMENT_3D('',#1480,#1214,#1215);
#1010=AXIS2_PLACEMENT_3D('',#1484,#1218,#1219);
#1011=AXIS2_PLACEMENT_3D('',#1488,#1222,#1223);
#1012=AXIS2_PLACEMENT_3D('',#1492,#1226,#1227);
#1013=AXIS2_PLACEMENT_3D('',#1496,#1230,#1231);
#1014=AXIS2_PLACEMENT_3D('',#1500,#1234,#1235);
#1015=AXIS2_PLACEMENT_3D('',#1504,#1238,#1239);
#1016=AXIS2_PLACEMENT_3D('',#1508,#1242,#1243);
#1017=AXIS2_PLACEMENT_3D('',#1510,#1245,#1246);
#1018=DIRECTION('axis',(0.,0.,1.));
#1019=DIRECTION('refdir',(1.,0.,0.));
#1020=DIRECTION('center_axis',(0.,0.,1.));
#1021=DIRECTION('ref_axis',(1.,0.,0.));
#1022=DIRECTION('',(0.,-1.,0.));
#1023=DIRECTION('',(-1.,2.25655086305926E-17,0.));
#1024=DIRECTION('',(0.,-1.,0.));
#1025=DIRECTION('',(1.,0.,0.));
#1026=DIRECTION('center_axis',(2.25655086305926E-17,1.,0.));
#1027=DIRECTION('ref_axis',(-1.,2.25655086305926E-17,0.));
#1028=DIRECTION('',(-0.943183647820253,2.12834187451217E-17,-0.332271886388965));
#1029=DIRECTION('',(-1.,2.25655086305926E-17,0.));
#1030=DIRECTION('',(0.,0.,1.));
#1031=DIRECTION('',(-1.,2.25655086305926E-17,0.));
#1032=DIRECTION('',(0.942627225161207,-2.12708627848068E-17,0.333847142244594));
#1033=DIRECTION('',(0.,0.,-1.));
#1034=DIRECTION('center_axis',(0.,-1.,0.));
#1035=DIRECTION('ref_axis',(1.,0.,0.));
#1036=DIRECTION('',(0.943183647820253,0.,0.332271886388965));
#1037=DIRECTION('',(0.,0.,1.));
#1038=DIRECTION('',(1.,0.,0.));
#1039=DIRECTION('',(1.,0.,0.));
#1040=DIRECTION('',(0.,0.,1.));
#1041=DIRECTION('',(-0.942627225161207,0.,-0.333847142244594));
#1042=DIRECTION('center_axis',(-1.,0.,0.));
#1043=DIRECTION('ref_axis',(0.,-1.,0.));
#1044=DIRECTION('',(0.,-1.,0.));
#1045=DIRECTION('center_axis',(0.,0.,1.));
#1046=DIRECTION('ref_axis',(1.,0.,0.));
#1047=DIRECTION('',(0.,1.,0.));
#1048=DIRECTION('center_axis',(0.,0.,1.));
#1049=DIRECTION('ref_axis',(1.,0.,0.));
#1050=DIRECTION('',(0.,-1.,0.));
#1051=DIRECTION('',(-1.,0.,0.));
#1052=DIRECTION('',(0.,-1.,0.));
#1053=DIRECTION('',(1.,0.,0.));
#1054=DIRECTION('center_axis',(0.,1.,0.));
#1055=DIRECTION('ref_axis',(-1.,0.,0.));
#1056=DIRECTION('',(-0.943183647820253,0.,-0.332271886388965));
#1057=DIRECTION('',(-1.,0.,0.));
#1058=DIRECTION('',(0.,0.,1.));
#1059=DIRECTION('',(-1.,0.,0.));
#1060=DIRECTION('',(0.942627225161207,0.,0.333847142244594));
#1061=DIRECTION('',(0.,0.,-1.));
#1062=DIRECTION('center_axis',(0.,-1.,0.));
#1063=DIRECTION('ref_axis',(1.,0.,0.));
#1064=DIRECTION('',(0.943183647820253,0.,0.332271886388965));
#1065=DIRECTION('',(0.,0.,1.));
#1066=DIRECTION('',(1.,0.,0.));
#1067=DIRECTION('',(1.,0.,0.));
#1068=DIRECTION('',(0.,0.,1.));
#1069=DIRECTION('',(-0.942627225161207,0.,-0.333847142244594));
#1070=DIRECTION('center_axis',(-1.,0.,0.));
#1071=DIRECTION('ref_axis',(0.,-1.,0.));
#1072=DIRECTION('',(0.,-1.,0.));
#1073=DIRECTION('center_axis',(0.,0.,1.));
#1074=DIRECTION('ref_axis',(1.,0.,0.));
#1075=DIRECTION('',(0.,1.,0.));
#1076=DIRECTION('center_axis',(1.,0.,0.));
#1077=DIRECTION('ref_axis',(0.,0.,-1.));
#1078=DIRECTION('',(0.,-1.,0.));
#1079=DIRECTION('',(0.,0.,1.));
#1080=DIRECTION('',(0.,1.,0.));
#1081=DIRECTION('center_axis',(1.,0.,0.));
#1082=DIRECTION('ref_axis',(0.,0.,-1.));
#1083=DIRECTION('',(0.,1.,0.));
#1084=DIRECTION('',(0.,0.,-1.));
#1085=DIRECTION('',(0.,-1.,0.));
#1086=DIRECTION('center_axis',(-0.333847142244594,0.,0.942627225161207));
#1087=DIRECTION('ref_axis',(0.942627225161207,0.,0.333847142244594));
#1088=DIRECTION('',(0.,1.,0.));
#1089=DIRECTION('',(0.942627225161207,0.,0.333847142244594));
#1090=DIRECTION('center_axis',(-0.333847142244594,0.,0.942627225161207));
#1091=DIRECTION('ref_axis',(0.942627225161207,0.,0.333847142244594));
#1092=DIRECTION('',(-0.942627225161207,0.,-0.333847142244594));
#1093=DIRECTION('',(0.,1.,0.));
#1094=DIRECTION('center_axis',(-0.333847142244594,0.,0.942627225161207));
#1095=DIRECTION('ref_axis',(0.942627225161207,0.,0.333847142244594));
#1096=DIRECTION('',(0.,1.,0.));
#1097=DIRECTION('',(0.,1.,0.));
#1098=DIRECTION('center_axis',(0.,0.,-1.));
#1099=DIRECTION('ref_axis',(-1.,0.,0.));
#1100=DIRECTION('',(-1.,0.,0.));
#1101=DIRECTION('center_axis',(0.,0.,-1.));
#1102=DIRECTION('ref_axis',(-1.,0.,0.));
#1103=DIRECTION('',(1.,0.,0.));
#1104=DIRECTION('center_axis',(0.,0.,1.));
#1105=DIRECTION('ref_axis',(1.,0.,0.));
#1106=DIRECTION('center_axis',(0.,0.,1.));
#1107=DIRECTION('ref_axis',(1.,0.,0.));
#1108=DIRECTION('',(0.,0.,-1.));
#1109=DIRECTION('center_axis',(0.,0.,-1.));
#1110=DIRECTION('ref_axis',(1.,0.,0.));
#1111=DIRECTION('center_axis',(0.,0.,1.));
#1112=DIRECTION('ref_axis',(1.,0.,0.));
#1113=DIRECTION('center_axis',(0.,-1.,0.));
#1114=DIRECTION('ref_axis',(0.,0.,-1.));
#1115=DIRECTION('',(-1.,0.,0.));
#1116=DIRECTION('',(0.,0.,1.));
#1117=DIRECTION('',(-1.,0.,0.));
#1118=DIRECTION('',(0.,0.,-1.));
#1119=DIRECTION('',(0.792623989104602,0.,-0.60971076084969));
#1120=DIRECTION('',(0.721988205115423,0.,0.691905363235616));
#1121=DIRECTION('',(-0.851658316704542,0.,0.524097425664338));
#1122=DIRECTION('',(0.,0.,1.));
#1123=DIRECTION('',(1.,0.,0.));
#1124=DIRECTION('',(0.,0.,-1.));
#1125=DIRECTION('',(1.,0.,0.));
#1126=DIRECTION('',(0.943183647820253,0.,0.332271886388965));
#1127=DIRECTION('',(0.,0.,1.));
#1128=DIRECTION('',(-1.,0.,0.));
#1129=DIRECTION('',(0.,0.,1.));
#1130=DIRECTION('',(0.921635375138065,0.,0.388057000058133));
#1131=DIRECTION('',(-1.,0.,0.));
#1132=DIRECTION('',(0.921635375138066,0.,-0.388057000058132));
#1133=DIRECTION('',(0.,0.,-1.));
#1134=DIRECTION('',(-1.,0.,0.));
#1135=DIRECTION('',(0.,0.,1.));
#1136=DIRECTION('',(0.921635375138066,0.,0.388057000058132));
#1137=DIRECTION('',(-1.,0.,0.));
#1138=DIRECTION('',(0.921635375138065,0.,-0.388057000058133));
#1139=DIRECTION('',(0.,0.,-1.));
#1140=DIRECTION('center_axis',(0.,0.,-1.));
#1141=DIRECTION('ref_axis',(-1.,0.,0.));
#1142=DIRECTION('',(0.,-1.,0.));
#1143=DIRECTION('center_axis',(1.,0.,0.));
#1144=DIRECTION('ref_axis',(0.,0.,-1.));
#1145=DIRECTION('center_axis',(1.,0.,0.));
#1146=DIRECTION('ref_axis',(0.,0.,-1.));
#1147=DIRECTION('',(0.,-1.,0.));
#1148=DIRECTION('',(0.,0.,-1.));
#1149=DIRECTION('',(0.,1.,0.));
#1150=DIRECTION('center_axis',(0.,0.,1.));
#1151=DIRECTION('ref_axis',(1.,0.,0.));
#1152=DIRECTION('',(1.,0.,0.));
#1153=DIRECTION('',(0.,1.,0.));
#1154=DIRECTION('center_axis',(-1.,0.,0.));
#1155=DIRECTION('ref_axis',(0.,0.,1.));
#1156=DIRECTION('',(0.,0.,1.));
#1157=DIRECTION('',(0.,1.,0.));
#1158=DIRECTION('center_axis',(-0.60971076084969,0.,-0.792623989104602));
#1159=DIRECTION('ref_axis',(-0.792623989104602,0.,0.60971076084969));
#1160=DIRECTION('',(-0.792623989104602,0.,0.60971076084969));
#1161=DIRECTION('',(0.,1.,0.));
#1162=DIRECTION('center_axis',(0.691905363235616,0.,-0.721988205115423));
#1163=DIRECTION('ref_axis',(-0.721988205115423,0.,-0.691905363235616));
#1164=DIRECTION('',(-0.721988205115423,0.,-0.691905363235616));
#1165=DIRECTION('',(0.,1.,0.));
#1166=DIRECTION('center_axis',(0.524097425664338,0.,0.851658316704542));
#1167=DIRECTION('ref_axis',(0.851658316704542,0.,-0.524097425664338));
#1168=DIRECTION('',(0.851658316704542,0.,-0.524097425664338));
#1169=DIRECTION('',(0.,1.,0.));
#1170=DIRECTION('center_axis',(1.,0.,0.));
#1171=DIRECTION('ref_axis',(0.,0.,-1.));
#1172=DIRECTION('',(0.,0.,-1.));
#1173=DIRECTION('',(0.,1.,0.));
#1174=DIRECTION('center_axis',(0.,0.,-1.));
#1175=DIRECTION('ref_axis',(-1.,0.,0.));
#1176=DIRECTION('',(-1.,0.,0.));
#1177=DIRECTION('',(0.,1.,0.));
#1178=DIRECTION('center_axis',(-1.,0.,0.));
#1179=DIRECTION('ref_axis',(0.,0.,1.));
#1180=DIRECTION('',(0.,0.,1.));
#1181=DIRECTION('',(0.,1.,0.));
#1182=DIRECTION('center_axis',(0.,0.,-1.));
#1183=DIRECTION('ref_axis',(-1.,0.,0.));
#1184=DIRECTION('',(-1.,0.,0.));
#1185=DIRECTION('',(0.,1.,0.));
#1186=DIRECTION('center_axis',(0.332271886388965,0.,-0.943183647820253));
#1187=DIRECTION('ref_axis',(-0.943183647820253,0.,-0.332271886388965));
#1188=DIRECTION('',(-0.943183647820253,0.,-0.332271886388965));
#1189=DIRECTION('',(0.,1.,0.));
#1190=DIRECTION('center_axis',(1.,0.,0.));
#1191=DIRECTION('ref_axis',(0.,0.,-1.));
#1192=DIRECTION('',(0.,0.,-1.));
#1193=DIRECTION('',(0.,1.,0.));
#1194=DIRECTION('center_axis',(0.,0.,1.));
#1195=DIRECTION('ref_axis',(1.,0.,0.));
#1196=DIRECTION('',(1.,0.,0.));
#1197=DIRECTION('',(0.,1.,0.));
#1198=DIRECTION('center_axis',(1.,0.,0.));
#1199=DIRECTION('ref_axis',(0.,0.,-1.));
#1200=DIRECTION('',(0.,0.,-1.));
#1201=DIRECTION('',(0.,1.,0.));
#1202=DIRECTION('center_axis',(0.388057000058133,0.,-0.921635375138065));
#1203=DIRECTION('ref_axis',(-0.921635375138065,0.,-0.388057000058133));
#1204=DIRECTION('',(-0.921635375138065,0.,-0.388057000058133));
#1205=DIRECTION('',(0.,1.,0.));
#1206=DIRECTION('center_axis',(0.,0.,1.));
#1207=DIRECTION('ref_axis',(1.,0.,0.));
#1208=DIRECTION('',(1.,0.,0.));
#1209=DIRECTION('',(0.,1.,0.));
#1210=DIRECTION('center_axis',(-0.388057000058132,0.,-0.921635375138066));
#1211=DIRECTION('ref_axis',(-0.921635375138066,0.,0.388057000058132));
#1212=DIRECTION('',(-0.921635375138066,0.,0.388057000058132));
#1213=DIRECTION('',(0.,1.,0.));
#1214=DIRECTION('center_axis',(-1.,0.,0.));
#1215=DIRECTION('ref_axis',(0.,0.,1.));
#1216=DIRECTION('',(0.,0.,1.));
#1217=DIRECTION('',(0.,1.,0.));
#1218=DIRECTION('center_axis',(0.,0.,1.));
#1219=DIRECTION('ref_axis',(1.,0.,0.));
#1220=DIRECTION('',(1.,0.,0.));
#1221=DIRECTION('',(0.,1.,0.));
#1222=DIRECTION('center_axis',(1.,0.,0.));
#1223=DIRECTION('ref_axis',(0.,0.,-1.));
#1224=DIRECTION('',(0.,0.,-1.));
#1225=DIRECTION('',(0.,1.,0.));
#1226=DIRECTION('center_axis',(0.388057000058132,0.,-0.921635375138066));
#1227=DIRECTION('ref_axis',(-0.921635375138066,0.,-0.388057000058132));
#1228=DIRECTION('',(-0.921635375138066,0.,-0.388057000058132));
#1229=DIRECTION('',(0.,1.,0.));
#1230=DIRECTION('center_axis',(0.,0.,1.));
#1231=DIRECTION('ref_axis',(1.,0.,0.));
#1232=DIRECTION('',(1.,0.,0.));
#1233=DIRECTION('',(0.,1.,0.));
#1234=DIRECTION('center_axis',(-0.388057000058133,0.,-0.921635375138065));
#1235=DIRECTION('ref_axis',(-0.921635375138065,0.,0.388057000058133));
#1236=DIRECTION('',(-0.921635375138065,0.,0.388057000058133));
#1237=DIRECTION('',(0.,1.,0.));
#1238=DIRECTION('center_axis',(-1.,0.,0.));
#1239=DIRECTION('ref_axis',(0.,0.,1.));
#1240=DIRECTION('',(0.,0.,1.));
#1241=DIRECTION('',(0.,1.,0.));
#1242=DIRECTION('center_axis',(0.,0.,1.));
#1243=DIRECTION('ref_axis',(1.,0.,0.));
#1244=DIRECTION('',(1.,0.,0.));
#1245=DIRECTION('center_axis',(0.,1.,0.));
#1246=DIRECTION('ref_axis',(0.,0.,1.));
#1247=CARTESIAN_POINT('',(0.,0.,0.));
#1248=CARTESIAN_POINT('Origin',(-0.79,-2.125,-3.3));
#1249=CARTESIAN_POINT('',(-4.26614100185529,-0.3,-3.3));
#1250=CARTESIAN_POINT('',(-4.26614100185529,-3.95,-3.3));
#1251=CARTESIAN_POINT('',(-4.26614100185529,-1.0625,-3.3));
#1252=CARTESIAN_POINT('',(-4.48,-0.3,-3.3));
#1253=CARTESIAN_POINT('',(2.9,-0.3,-3.3));
#1254=CARTESIAN_POINT('',(-4.48,-3.95,-3.3));
#1255=CARTESIAN_POINT('',(-4.48,-0.3,-3.3));
#1256=CARTESIAN_POINT('',(-4.48,-3.95,-3.3));
#1257=CARTESIAN_POINT('Origin',(2.9,-0.3,-3.3));
#1258=CARTESIAN_POINT('',(2.67421150278293,-0.3,-0.855));
#1259=CARTESIAN_POINT('',(2.60441251133893,-0.3,-0.879589317900861));
#1260=CARTESIAN_POINT('',(-4.48,-0.3,-0.855));
#1261=CARTESIAN_POINT('',(2.9,-0.3,-0.855));
#1262=CARTESIAN_POINT('',(-4.48,-0.3,-3.3));
#1263=CARTESIAN_POINT('',(1.2,-0.3,-1.1));
#1264=CARTESIAN_POINT('',(-3.6,-0.3,-1.1));
#1265=CARTESIAN_POINT('',(2.05,-0.3,-1.1));
#1266=CARTESIAN_POINT('',(-3.6,-0.3,-2.8));
#1267=CARTESIAN_POINT('',(-0.790898573081373,-0.3,-1.80510991129965));
#1268=CARTESIAN_POINT('',(-3.6,-0.3,-2.2));
#1269=CARTESIAN_POINT('Origin',(-4.48,-3.95,-3.3));
#1270=CARTESIAN_POINT('',(2.67421150278293,-3.95,-0.855));
#1271=CARTESIAN_POINT('',(-0.678194490733333,-3.95,-2.03601100033024));
#1272=CARTESIAN_POINT('',(-4.48,-3.95,-0.855));
#1273=CARTESIAN_POINT('',(-4.48,-3.95,-3.3));
#1274=CARTESIAN_POINT('',(-4.48,-3.95,-0.855));
#1275=CARTESIAN_POINT('',(-3.6,-3.95,-1.1));
#1276=CARTESIAN_POINT('',(1.2,-3.95,-1.1));
#1277=CARTESIAN_POINT('',(-1.64,-3.95,-1.1));
#1278=CARTESIAN_POINT('',(-3.6,-3.95,-2.8));
#1279=CARTESIAN_POINT('',(-3.6,-3.95,-2.2));
#1280=CARTESIAN_POINT('',(-4.06963362900116,-3.95,-2.96632857693791));
#1281=CARTESIAN_POINT('Origin',(-4.48,-0.3,-3.3));
#1282=CARTESIAN_POINT('',(-4.48,-0.3,-0.855));
#1283=CARTESIAN_POINT('Origin',(-0.79,-2.125,-0.855));
#1284=CARTESIAN_POINT('',(2.67421150278293,-1.0625,-0.855));
#1285=CARTESIAN_POINT('Origin',(-0.79,2.125,-3.3));
#1286=CARTESIAN_POINT('',(-4.26614100185529,3.95,-3.3));
#1287=CARTESIAN_POINT('',(-4.26614100185529,0.3,-3.3));
#1288=CARTESIAN_POINT('',(-4.26614100185529,1.0625,-3.3));
#1289=CARTESIAN_POINT('',(-4.48,3.95,-3.3));
#1290=CARTESIAN_POINT('',(2.9,3.95,-3.3));
#1291=CARTESIAN_POINT('',(-4.48,0.3,-3.3));
#1292=CARTESIAN_POINT('',(-4.48,3.95,-3.3));
#1293=CARTESIAN_POINT('',(-4.48,0.3,-3.3));
#1294=CARTESIAN_POINT('Origin',(2.9,3.95,-3.3));
#1295=CARTESIAN_POINT('',(2.67421150278293,3.95,-0.855));
#1296=CARTESIAN_POINT('',(2.60441251133893,3.95,-0.879589317900861));
#1297=CARTESIAN_POINT('',(-4.48,3.95,-0.855));
#1298=CARTESIAN_POINT('',(2.9,3.95,-0.855));
#1299=CARTESIAN_POINT('',(-4.48,3.95,-3.3));
#1300=CARTESIAN_POINT('',(1.2,3.95,-1.1));
#1301=CARTESIAN_POINT('',(-3.6,3.95,-1.1));
#1302=CARTESIAN_POINT('',(2.05,3.95,-1.1));
#1303=CARTESIAN_POINT('',(-3.6,3.95,-2.8));
#1304=CARTESIAN_POINT('',(-0.790898573081373,3.95,-1.80510991129965));
#1305=CARTESIAN_POINT('',(-3.6,3.95,-2.2));
#1306=CARTESIAN_POINT('Origin',(-4.48,0.3,-3.3));
#1307=CARTESIAN_POINT('',(2.67421150278293,0.3,-0.855));
#1308=CARTESIAN_POINT('',(-0.678194490733333,0.3,-2.03601100033024));
#1309=CARTESIAN_POINT('',(-4.48,0.3,-0.855));
#1310=CARTESIAN_POINT('',(-4.48,0.3,-3.3));
#1311=CARTESIAN_POINT('',(-4.48,0.3,-0.855));
#1312=CARTESIAN_POINT('',(-3.6,0.3,-1.1));
#1313=CARTESIAN_POINT('',(1.2,0.3,-1.1));
#1314=CARTESIAN_POINT('',(-1.64,0.3,-1.1));
#1315=CARTESIAN_POINT('',(-3.6,0.3,-2.8));
#1316=CARTESIAN_POINT('',(-3.6,0.3,-2.2));
#1317=CARTESIAN_POINT('',(-4.06963362900116,0.3,-2.96632857693791));
#1318=CARTESIAN_POINT('Origin',(-4.48,3.95,-3.3));
#1319=CARTESIAN_POINT('',(-4.48,3.95,-0.855));
#1320=CARTESIAN_POINT('Origin',(-0.79,2.125,-0.855));
#1321=CARTESIAN_POINT('',(2.67421150278293,1.0625,-0.855));
#1322=CARTESIAN_POINT('Origin',(-3.6,0.,-1.1));
#1323=CARTESIAN_POINT('',(-3.6,-4.55,-1.1));
#1324=CARTESIAN_POINT('',(-3.6,0.,-1.1));
#1325=CARTESIAN_POINT('',(-3.6,-4.55,-2.8));
#1326=CARTESIAN_POINT('',(-3.6,-4.55,-1.1));
#1327=CARTESIAN_POINT('',(-3.6,0.,-2.8));
#1328=CARTESIAN_POINT('Origin',(-3.6,0.,-1.1));
#1329=CARTESIAN_POINT('',(-3.6,4.55,-2.8));
#1330=CARTESIAN_POINT('',(-3.6,0.,-2.8));
#1331=CARTESIAN_POINT('',(-3.6,4.55,-1.1));
#1332=CARTESIAN_POINT('',(-3.6,4.55,-1.1));
#1333=CARTESIAN_POINT('',(-3.6,0.,-1.1));
#1334=CARTESIAN_POINT('Origin',(-3.6,0.,-2.8));
#1335=CARTESIAN_POINT('',(1.2,4.55,-1.1));
#1336=CARTESIAN_POINT('',(1.2,0.,-1.1));
#1337=CARTESIAN_POINT('',(-3.6,4.55,-2.8));
#1338=CARTESIAN_POINT('Origin',(-3.6,0.,-2.8));
#1339=CARTESIAN_POINT('',(1.2,-4.55,-1.1));
#1340=CARTESIAN_POINT('',(-3.6,-4.55,-2.8));
#1341=CARTESIAN_POINT('',(1.2,0.,-1.1));
#1342=CARTESIAN_POINT('Origin',(-3.6,0.,-2.8));
#1343=CARTESIAN_POINT('',(1.2,0.,-1.1));
#1344=CARTESIAN_POINT('',(-3.6,0.,-2.8));
#1345=CARTESIAN_POINT('Origin',(1.2,0.,-1.1));
#1346=CARTESIAN_POINT('',(1.2,4.55,-1.1));
#1347=CARTESIAN_POINT('Origin',(1.2,0.,-1.1));
#1348=CARTESIAN_POINT('',(1.2,-4.55,-1.1));
#1349=CARTESIAN_POINT('Origin',(0.,0.,-0.305));
#1350=CARTESIAN_POINT('',(-0.15,-1.83697019872103E-17,-0.27));
#1351=CARTESIAN_POINT('Origin',(0.,0.,-0.27));
#1352=CARTESIAN_POINT('',(-0.15,-1.83697019872103E-17,-0.305));
#1353=CARTESIAN_POINT('',(-0.15,-1.83697019872103E-17,-0.305));
#1354=CARTESIAN_POINT('Origin',(0.,0.,-0.305));
#1355=CARTESIAN_POINT('Origin',(0.,0.,-0.27));
#1356=CARTESIAN_POINT('Origin',(-1.21,-4.55,-0.6));
#1357=CARTESIAN_POINT('',(-2.87,-4.55,-0.305));
#1358=CARTESIAN_POINT('',(-4.58,-4.55,-0.305));
#1359=CARTESIAN_POINT('',(-4.58,-4.55,-0.305));
#1360=CARTESIAN_POINT('',(-4.58,-4.55,2.2));
#1361=CARTESIAN_POINT('',(-4.58,-4.55,2.2));
#1362=CARTESIAN_POINT('',(-5.52,-4.55,2.2));
#1363=CARTESIAN_POINT('',(-5.52,-4.55,2.2));
#1364=CARTESIAN_POINT('',(-5.52,-4.55,-2.88));
#1365=CARTESIAN_POINT('',(-5.52,-4.55,-2.88));
#1366=CARTESIAN_POINT('',(-5.39,-4.55,-2.98));
#1367=CARTESIAN_POINT('',(-5.39,-4.55,-2.98));
#1368=CARTESIAN_POINT('',(-5.15,-4.55,-2.75));
#1369=CARTESIAN_POINT('',(-5.15,-4.55,-2.75));
#1370=CARTESIAN_POINT('',(-5.28,-4.55,-2.67));
#1371=CARTESIAN_POINT('',(-5.28,-4.55,-2.67));
#1372=CARTESIAN_POINT('',(-5.28,-4.55,1.9));
#1373=CARTESIAN_POINT('',(-5.28,-4.55,1.9));
#1374=CARTESIAN_POINT('',(-4.88,-4.55,1.9));
#1375=CARTESIAN_POINT('',(-4.88,-4.55,1.9));
#1376=CARTESIAN_POINT('',(-4.88,-4.55,-3.4));
#1377=CARTESIAN_POINT('',(-4.88,-4.55,-3.4));
#1378=CARTESIAN_POINT('',(-4.55,-4.55,-3.4));
#1379=CARTESIAN_POINT('',(-4.55,-4.55,-3.4));
#1380=CARTESIAN_POINT('',(3.1,-4.55,-0.705));
#1381=CARTESIAN_POINT('',(3.1,-4.55,-0.705));
#1382=CARTESIAN_POINT('',(3.1,-4.55,-0.305));
#1383=CARTESIAN_POINT('',(3.1,-4.55,-0.305));
#1384=CARTESIAN_POINT('',(2.87,-4.55,-0.305));
#1385=CARTESIAN_POINT('',(2.87,-4.55,-0.305));
#1386=CARTESIAN_POINT('',(2.87,-4.55,-0.215));
#1387=CARTESIAN_POINT('',(2.87,-4.55,-0.215));
#1388=CARTESIAN_POINT('',(3.06,-4.55,-0.135));
#1389=CARTESIAN_POINT('',(3.06,-4.55,-0.135));
#1390=CARTESIAN_POINT('',(2.14,-4.55,-0.135));
#1391=CARTESIAN_POINT('',(2.14,-4.55,-0.135));
#1392=CARTESIAN_POINT('',(2.33,-4.55,-0.215));
#1393=CARTESIAN_POINT('',(2.33,-4.55,-0.215));
#1394=CARTESIAN_POINT('',(2.33,-4.55,-0.305));
#1395=CARTESIAN_POINT('',(2.33,-4.55,-0.305));
#1396=CARTESIAN_POINT('',(-2.33,-4.55,-0.305));
#1397=CARTESIAN_POINT('',(-2.33,-4.55,-0.305));
#1398=CARTESIAN_POINT('',(-2.33,-4.55,-0.215));
#1399=CARTESIAN_POINT('',(-2.33,-4.55,-0.215));
#1400=CARTESIAN_POINT('',(-2.14,-4.55,-0.135));
#1401=CARTESIAN_POINT('',(-2.14,-4.55,-0.135));
#1402=CARTESIAN_POINT('',(-3.06,-4.55,-0.135));
#1403=CARTESIAN_POINT('',(-3.06,-4.55,-0.135));
#1404=CARTESIAN_POINT('',(-2.87,-4.55,-0.215));
#1405=CARTESIAN_POINT('',(-2.87,-4.55,-0.215));
#1406=CARTESIAN_POINT('',(-2.87,-4.55,-0.305));
#1407=CARTESIAN_POINT('Origin',(1.2,0.,-1.1));
#1408=CARTESIAN_POINT('',(-3.6,0.,-1.1));
#1409=CARTESIAN_POINT('Origin',(-3.6,0.,-1.1));
#1410=CARTESIAN_POINT('Origin',(-4.58,0.,2.2));
#1411=CARTESIAN_POINT('',(-4.58,4.55,-0.305));
#1412=CARTESIAN_POINT('',(-4.58,0.,-0.305));
#1413=CARTESIAN_POINT('',(-4.58,4.55,2.2));
#1414=CARTESIAN_POINT('',(-4.58,4.55,2.2));
#1415=CARTESIAN_POINT('',(-4.58,0.,2.2));
#1416=CARTESIAN_POINT('Origin',(-5.52,0.,2.2));
#1417=CARTESIAN_POINT('',(-5.52,4.55,2.2));
#1418=CARTESIAN_POINT('',(-5.52,4.55,2.2));
#1419=CARTESIAN_POINT('',(-5.52,0.,2.2));
#1420=CARTESIAN_POINT('Origin',(-5.52,0.,-2.88));
#1421=CARTESIAN_POINT('',(-5.52,4.55,-2.88));
#1422=CARTESIAN_POINT('',(-5.52,4.55,-2.88));
#1423=CARTESIAN_POINT('',(-5.52,0.,-2.88));
#1424=CARTESIAN_POINT('Origin',(-5.39,0.,-2.98));
#1425=CARTESIAN_POINT('',(-5.39,4.55,-2.98));
#1426=CARTESIAN_POINT('',(-5.39,4.55,-2.98));
#1427=CARTESIAN_POINT('',(-5.39,0.,-2.98));
#1428=CARTESIAN_POINT('Origin',(-5.15,0.,-2.75));
#1429=CARTESIAN_POINT('',(-5.15,4.55,-2.75));
#1430=CARTESIAN_POINT('',(-5.15,4.55,-2.75));
#1431=CARTESIAN_POINT('',(-5.15,0.,-2.75));
#1432=CARTESIAN_POINT('Origin',(-5.28,0.,-2.67));
#1433=CARTESIAN_POINT('',(-5.28,4.55,-2.67));
#1434=CARTESIAN_POINT('',(-5.28,4.55,-2.67));
#1435=CARTESIAN_POINT('',(-5.28,0.,-2.67));
#1436=CARTESIAN_POINT('Origin',(-5.28,0.,1.9));
#1437=CARTESIAN_POINT('',(-5.28,4.55,1.9));
#1438=CARTESIAN_POINT('',(-5.28,4.55,1.9));
#1439=CARTESIAN_POINT('',(-5.28,0.,1.9));
#1440=CARTESIAN_POINT('Origin',(-4.88,0.,1.9));
#1441=CARTESIAN_POINT('',(-4.88,4.55,1.9));
#1442=CARTESIAN_POINT('',(-4.88,4.55,1.9));
#1443=CARTESIAN_POINT('',(-4.88,0.,1.9));
#1444=CARTESIAN_POINT('Origin',(-4.88,0.,-3.4));
#1445=CARTESIAN_POINT('',(-4.88,4.55,-3.4));
#1446=CARTESIAN_POINT('',(-4.88,4.55,-3.4));
#1447=CARTESIAN_POINT('',(-4.88,0.,-3.4));
#1448=CARTESIAN_POINT('Origin',(-4.55,0.,-3.4));
#1449=CARTESIAN_POINT('',(-4.55,4.55,-3.4));
#1450=CARTESIAN_POINT('',(-4.55,4.55,-3.4));
#1451=CARTESIAN_POINT('',(-4.55,0.,-3.4));
#1452=CARTESIAN_POINT('Origin',(3.1,0.,-0.705));
#1453=CARTESIAN_POINT('',(3.1,4.55,-0.705));
#1454=CARTESIAN_POINT('',(3.1,4.55,-0.705));
#1455=CARTESIAN_POINT('',(3.1,0.,-0.705));
#1456=CARTESIAN_POINT('Origin',(3.1,0.,-0.305));
#1457=CARTESIAN_POINT('',(3.1,4.55,-0.305));
#1458=CARTESIAN_POINT('',(3.1,4.55,-0.305));
#1459=CARTESIAN_POINT('',(3.1,0.,-0.305));
#1460=CARTESIAN_POINT('Origin',(2.87,0.,-0.305));
#1461=CARTESIAN_POINT('',(2.87,4.55,-0.305));
#1462=CARTESIAN_POINT('',(2.87,4.55,-0.305));
#1463=CARTESIAN_POINT('',(2.87,0.,-0.305));
#1464=CARTESIAN_POINT('Origin',(2.87,0.,-0.215));
#1465=CARTESIAN_POINT('',(2.87,4.55,-0.215));
#1466=CARTESIAN_POINT('',(2.87,4.55,-0.215));
#1467=CARTESIAN_POINT('',(2.87,0.,-0.215));
#1468=CARTESIAN_POINT('Origin',(3.06,0.,-0.135));
#1469=CARTESIAN_POINT('',(3.06,4.55,-0.135));
#1470=CARTESIAN_POINT('',(3.06,4.55,-0.135));
#1471=CARTESIAN_POINT('',(3.06,0.,-0.135));
#1472=CARTESIAN_POINT('Origin',(2.14,0.,-0.135));
#1473=CARTESIAN_POINT('',(2.14,4.55,-0.135));
#1474=CARTESIAN_POINT('',(2.14,4.55,-0.135));
#1475=CARTESIAN_POINT('',(2.14,0.,-0.135));
#1476=CARTESIAN_POINT('Origin',(2.33,0.,-0.215));
#1477=CARTESIAN_POINT('',(2.33,4.55,-0.215));
#1478=CARTESIAN_POINT('',(2.33,4.55,-0.215));
#1479=CARTESIAN_POINT('',(2.33,0.,-0.215));
#1480=CARTESIAN_POINT('Origin',(2.33,0.,-0.305));
#1481=CARTESIAN_POINT('',(2.33,4.55,-0.305));
#1482=CARTESIAN_POINT('',(2.33,4.55,-0.305));
#1483=CARTESIAN_POINT('',(2.33,0.,-0.305));
#1484=CARTESIAN_POINT('Origin',(-2.33,0.,-0.305));
#1485=CARTESIAN_POINT('',(-2.33,4.55,-0.305));
#1486=CARTESIAN_POINT('',(-2.33,4.55,-0.305));
#1487=CARTESIAN_POINT('',(-2.33,0.,-0.305));
#1488=CARTESIAN_POINT('Origin',(-2.33,0.,-0.215));
#1489=CARTESIAN_POINT('',(-2.33,4.55,-0.215));
#1490=CARTESIAN_POINT('',(-2.33,4.55,-0.215));
#1491=CARTESIAN_POINT('',(-2.33,0.,-0.215));
#1492=CARTESIAN_POINT('Origin',(-2.14,0.,-0.135));
#1493=CARTESIAN_POINT('',(-2.14,4.55,-0.135));
#1494=CARTESIAN_POINT('',(-2.14,4.55,-0.135));
#1495=CARTESIAN_POINT('',(-2.14,0.,-0.135));
#1496=CARTESIAN_POINT('Origin',(-3.06,0.,-0.135));
#1497=CARTESIAN_POINT('',(-3.06,4.55,-0.135));
#1498=CARTESIAN_POINT('',(-3.06,4.55,-0.135));
#1499=CARTESIAN_POINT('',(-3.06,0.,-0.135));
#1500=CARTESIAN_POINT('Origin',(-2.87,0.,-0.215));
#1501=CARTESIAN_POINT('',(-2.87,4.55,-0.215));
#1502=CARTESIAN_POINT('',(-2.87,4.55,-0.215));
#1503=CARTESIAN_POINT('',(-2.87,0.,-0.215));
#1504=CARTESIAN_POINT('Origin',(-2.87,0.,-0.305));
#1505=CARTESIAN_POINT('',(-2.87,4.55,-0.305));
#1506=CARTESIAN_POINT('',(-2.87,4.55,-0.305));
#1507=CARTESIAN_POINT('',(-2.87,0.,-0.305));
#1508=CARTESIAN_POINT('Origin',(-4.58,0.,-0.305));
#1509=CARTESIAN_POINT('',(-4.58,4.55,-0.305));
#1510=CARTESIAN_POINT('Origin',(-1.21,4.55,-0.6));
#1511=UNCERTAINTY_MEASURE_WITH_UNIT(LENGTH_MEASURE(0.001),#1515,
'DISTANCE_ACCURACY_VALUE',
'Maximum model space distance between geometric entities at asserted c
onnectivities');
#1512=UNCERTAINTY_MEASURE_WITH_UNIT(LENGTH_MEASURE(0.001),#1515,
'DISTANCE_ACCURACY_VALUE',
'Maximum model space distance between geometric entities at asserted c
onnectivities');
#1513=(
GEOMETRIC_REPRESENTATION_CONTEXT(3)
GLOBAL_UNCERTAINTY_ASSIGNED_CONTEXT((#1511))
GLOBAL_UNIT_ASSIGNED_CONTEXT((#1515,#1517,#1518))
REPRESENTATION_CONTEXT('','3D')
);
#1514=(
GEOMETRIC_REPRESENTATION_CONTEXT(3)
GLOBAL_UNCERTAINTY_ASSIGNED_CONTEXT((#1512))
GLOBAL_UNIT_ASSIGNED_CONTEXT((#1515,#1517,#1518))
REPRESENTATION_CONTEXT('','3D')
);
#1515=(
LENGTH_UNIT()
NAMED_UNIT(*)
SI_UNIT(.CENTI.,.METRE.)
);
#1516=(
LENGTH_UNIT()
NAMED_UNIT(*)
SI_UNIT($,.METRE.)
);
#1517=(
NAMED_UNIT(*)
PLANE_ANGLE_UNIT()
SI_UNIT($,.RADIAN.)
);
#1518=(
NAMED_UNIT(*)
SI_UNIT($,.STERADIAN.)
SOLID_ANGLE_UNIT()
);
#1519=SHAPE_DEFINITION_REPRESENTATION(#1520,#1521);
#1520=PRODUCT_DEFINITION_SHAPE('',$,#1523);
#1521=SHAPE_REPRESENTATION('',(#967),#1513);
#1522=PRODUCT_DEFINITION_CONTEXT('part definition',#1527,'design');
#1523=PRODUCT_DEFINITION('Mount','Mount',#1524,#1522);
#1524=PRODUCT_DEFINITION_FORMATION('',$,#1529);
#1525=PRODUCT_RELATED_PRODUCT_CATEGORY('Mount','Mount',(#1529));
#1526=APPLICATION_PROTOCOL_DEFINITION('international standard',
'automotive_design',2009,#1527);
#1527=APPLICATION_CONTEXT(
'Core Data for Automotive Mechanical Design Process');
#1528=PRODUCT_CONTEXT('part definition',#1527,'mechanical');
#1529=PRODUCT('Mount','Mount',$,(#1528));
#1530=PRESENTATION_STYLE_ASSIGNMENT((#1532));
#1531=PRESENTATION_STYLE_ASSIGNMENT((#1533));
#1532=SURFACE_STYLE_USAGE(.BOTH.,#1534);
#1533=SURFACE_STYLE_USAGE(.BOTH.,#1535);
#1534=SURFACE_SIDE_STYLE('',(#1536));
#1535=SURFACE_SIDE_STYLE('',(#1537));
#1536=SURFACE_STYLE_FILL_AREA(#1538);
#1537=SURFACE_STYLE_FILL_AREA(#1539);
#1538=FILL_AREA_STYLE('Steel - Satin',(#1540));
#1539=FILL_AREA_STYLE('Tough 2000 (with Formlabs SLA 3D Printers)',(#1541));
#1540=FILL_AREA_STYLE_COLOUR('Steel - Satin',#1542);
#1541=FILL_AREA_STYLE_COLOUR(
'Tough 2000 (with Formlabs SLA 3D Printers)',#1543);
#1542=COLOUR_RGB('Steel - Satin',0.627450980392157,0.627450980392157,0.627450980392157);
#1543=COLOUR_RGB('Tough 2000 (with Formlabs SLA 3D Printers)',0.247058823529412,
0.247058823529412,0.247058823529412);
ENDSEC;
END-ISO-10303-21;
